# Blender v2.77 (sub 0) OBJ File: 'Ship_EnergyFalcon.blend'
# www.blender.org
mtllib Ship_EnergyFalcon.mtl
o Cube
v 0.884726 -0.637359 -2.291250
v 0.678532 -0.613516 1.685249
v 0.606319 0.482600 -2.142176
v 0.678531 0.864432 1.685250
v 0.898251 -0.212453 -2.291249
v 0.898251 0.212453 -2.291249
v 1.173753 -0.288144 1.685249
v 1.173752 0.288144 1.685250
v 0.526054 0.549479 3.053618
v 0.840843 0.183160 2.866440
v 0.943685 -0.714469 -2.058010
v 0.887370 -0.774740 -0.423442
v 0.727656 -0.662110 1.147300
v 0.679667 0.714469 -1.484258
v 0.887370 0.774740 -0.041969
v 0.831055 0.662110 1.013843
v 1.258474 -0.295790 -1.767558
v 1.202159 -0.258247 0.149343
v 1.084361 -0.220703 1.402737
v 1.258474 0.295790 -1.767558
v 1.202159 0.258247 0.149343
v 1.084361 0.220703 1.402737
v 4.602116 -0.250621 -3.019481
v 4.602116 0.250621 -3.019480
v 4.620588 0.000000 -3.780128
v 4.788524 -0.078146 -3.046625
v 4.788523 0.078146 -3.046625
v 2.309399 -0.213599 -3.393368
v 2.309399 0.213599 -3.393367
v 2.260681 -0.000000 -4.088763
v 2.477086 -0.083845 -3.434194
v 2.477086 0.083844 -3.434194
v 3.524565 -0.165756 -1.710849
v 3.524565 0.165756 -1.710849
v 3.283357 -0.497269 -1.965138
v 3.399924 -0.529162 -0.680414
v 3.283357 0.497269 -1.965138
v 3.648880 -0.176387 -0.716666
v 3.648880 0.176387 -0.716666
v 3.399924 0.529162 -0.680414
v 1.836224 0.177027 -2.451505
v 1.618819 0.444631 -2.548042
v 2.128738 -0.199916 -1.182646
v 2.128738 0.199916 -1.182646
v 1.824218 0.599748 -1.505673
v 1.824218 -0.599748 -1.403264
v 1.836224 -0.177027 -2.451505
v 1.618819 -0.444631 -2.548042
v 0.562428 -0.316699 -2.688490
v 0.458210 -0.502904 -2.688490
v 0.548007 -0.045123 -2.688490
v 0.381608 0.184750 -2.688490
v 0.985219 0.288144 2.591196
v 0.540662 0.779444 2.591196
v 0.429847 -0.596544 2.591195
v 0.453690 0.011770 3.312989
v 0.925067 -0.288144 2.591195
v 0.274611 0.202706 3.410100
v 0.526055 -0.491814 2.866439
v 0.161435 0.022293 3.850406
v 0.840844 -0.183160 2.866440
v 0.094841 0.070888 3.887205
v 0.274052 -0.218963 3.260676
v 0.560303 -0.094886 3.212445
v 0.102591 -0.066882 3.776808
v 0.161435 -0.022294 3.813607
v -0.884726 -0.637359 -2.291250
v -0.678532 -0.613516 1.685249
v -0.606319 0.482600 -2.142176
v -0.678531 0.864432 1.685250
v 0.000000 -0.873834 -2.291250
v 0.000000 -0.613516 1.685249
v 0.000000 0.627877 -2.084979
v 0.000000 0.864432 1.685249
v -0.898251 -0.212453 -2.291249
v -0.898251 0.212453 -2.291249
v -1.173753 -0.288144 1.685249
v -1.173752 0.288144 1.685250
v -0.526054 0.549479 3.053618
v -0.840843 0.183160 2.866440
v -0.943685 -0.714469 -2.058010
v -0.887370 -0.774740 -0.423442
v -0.727656 -0.662110 1.147300
v -0.679667 0.714469 -1.484258
v -0.887370 0.774740 -0.041969
v -0.831055 0.662110 1.013843
v 0.000000 0.887370 -1.104052
v 0.000000 0.774740 0.149343
v 0.000000 0.770686 1.238590
v 0.000000 -0.662110 1.402737
v 0.000000 -0.774740 0.149342
v 0.000000 -0.887370 -1.104052
v -1.258474 -0.295790 -1.767558
v -1.202159 -0.258247 0.149343
v -1.084361 -0.220703 1.402737
v -1.258474 0.295790 -1.767558
v -1.202159 0.258247 0.149343
v -1.084361 0.220703 1.402737
v -4.602116 -0.250621 -3.019481
v -4.602116 0.250621 -3.019480
v -4.620588 0.000000 -3.780128
v -4.788524 -0.078146 -3.046625
v -4.788523 0.078146 -3.046625
v -2.309399 -0.213599 -3.393368
v -2.309399 0.213599 -3.393367
v -2.260681 -0.000000 -4.088763
v -2.477086 -0.083845 -3.434194
v -2.477086 0.083844 -3.434194
v 0.000000 -0.096431 -2.905088
v -3.524565 -0.165756 -1.710849
v -3.524565 0.165756 -1.710849
v -3.283357 -0.497269 -1.965138
v -3.399924 -0.529162 -0.680414
v -3.283357 0.497269 -1.965138
v -3.648880 -0.176387 -0.716666
v -3.648880 0.176387 -0.716666
v -3.399924 0.529162 -0.680414
v -1.836224 0.177027 -2.451505
v -1.618819 0.444631 -2.548042
v -2.128738 -0.199916 -1.182646
v -2.128738 0.199916 -1.182646
v -1.824218 0.599748 -1.505673
v -1.824218 -0.599748 -1.403264
v -1.836224 -0.177027 -2.451505
v -1.618819 -0.444631 -2.548042
v 0.000000 -0.674178 -2.601223
v 0.000000 0.315970 -2.647309
v -0.562428 -0.316699 -2.688490
v -0.458210 -0.502904 -2.688490
v -0.548007 -0.045123 -2.688490
v -0.381608 0.184750 -2.688490
v -0.985219 0.288144 2.591196
v -0.540662 0.779444 2.591196
v -0.429847 -0.596544 2.591195
v 0.000000 -0.596544 2.591195
v 0.000000 0.847790 2.591195
v -0.453690 0.011770 3.312989
v -0.925067 -0.288144 2.591195
v -0.274611 0.202706 3.410100
v -0.526055 -0.491814 2.866439
v 0.000000 -0.491814 2.866439
v 0.000000 0.549479 3.208840
v -0.161435 0.022293 3.850406
v -0.840844 -0.183160 2.866440
v -0.094841 0.070888 3.887205
v -0.274052 -0.218963 3.260676
v 0.000000 -0.218963 3.260676
v 0.000000 0.284656 3.312989
v -0.560303 -0.094886 3.212445
v -0.102591 -0.066882 3.776808
v 0.000000 -0.066882 3.776808
v 0.000000 0.070888 3.887205
v -0.161435 -0.022294 3.813607
v 0.000000 -0.172324 3.974324
vn 0.8198 0.5629 -0.1049
vn 0.0904 0.5279 -0.8445
vn 0.0559 0.9966 0.0602
vn 0.0321 0.9673 -0.2518
vn 0.0216 -0.9927 0.1189
vn 0.7405 0.6518 0.1640
vn 0.9709 -0.0507 0.2343
vn 0.3367 0.2437 -0.9095
vn 0.2970 -0.1662 -0.9403
vn 0.6764 -0.7348 -0.0501
vn 0.9534 0.0000 -0.3017
vn 0.8239 0.0000 -0.5667
vn 0.0618 0.9745 -0.2158
vn -0.6539 0.6986 -0.2904
vn 0.8494 -0.1572 -0.5037
vn 0.9882 -0.0000 0.1529
vn 0.1539 -0.9873 -0.0385
vn 0.1829 -0.9806 -0.0702
vn 0.1106 -0.9937 0.0202
vn 0.0419 -0.9958 0.0818
vn 0.1357 0.9473 -0.2901
vn 0.1135 0.9935 0.0106
vn 0.0765 0.9955 0.0562
vn 0.4500 0.8078 -0.3806
vn -0.7480 -0.6522 -0.1234
vn -0.8837 0.0000 -0.4681
vn 0.9748 0.0000 -0.2232
vn 0.6438 -0.7313 -0.2253
vn 0.6438 0.7313 -0.2253
vn -0.6539 -0.6986 -0.2904
vn 0.8983 0.0000 0.4394
vn 0.0728 0.9875 -0.1399
vn 0.7465 -0.5792 0.3277
vn 0.7465 0.5792 0.3277
vn 0.9495 -0.0000 -0.3139
vn 0.5436 -0.7909 -0.2810
vn 0.5436 0.7909 -0.2810
vn 0.7339 -0.6762 0.0642
vn 0.7278 0.6829 0.0637
vn -0.9680 0.0000 -0.2510
vn 0.1353 -0.9783 -0.1568
vn -0.7480 0.6522 -0.1234
vn -0.0365 -0.9560 -0.2911
vn -0.0737 -0.9467 -0.3137
vn 0.0054 -0.4655 -0.8850
vn 0.3659 0.0194 -0.9304
vn 0.4929 0.5940 0.6358
vn 0.5081 -0.5665 0.6487
vn 0.1052 0.9940 0.0316
vn 0.6370 0.0000 0.7708
vn -0.5116 -0.6379 -0.5756
vn -0.6252 0.0000 -0.7805
vn 0.1002 -0.9945 0.0296
vn -0.4184 0.7598 -0.4977
vn -0.5962 0.6919 -0.4072
vn 0.1914 -0.9777 -0.0860
vn -0.7639 0.0000 -0.6453
vn 0.6529 0.6549 0.3805
vn 0.5720 -0.7226 0.3881
vn -0.6470 -0.6363 -0.4201
vn 0.8209 -0.0000 0.5711
vn 0.0973 0.9900 -0.1020
vn 0.7532 0.0156 -0.6576
vn 0.2168 -0.8257 -0.5208
vn 0.7121 -0.1372 -0.6885
vn 0.4605 0.6134 -0.6417
vn 0.1863 0.8444 -0.5022
vn 0.7259 0.5537 0.4079
vn 0.1208 0.8911 0.4375
vn 0.5820 -0.7640 0.2784
vn 0.0000 -0.9998 0.0187
vn 0.5326 -0.8323 0.1540
vn 0.6760 0.2444 0.6952
vn 0.1172 0.5663 0.8158
vn 0.4825 -0.5989 0.6392
vn 0.9219 -0.0588 0.3828
vn 0.0000 -0.9346 0.3556
vn 0.7415 0.5321 0.4086
vn 0.1214 0.9366 0.3286
vn 0.4165 -0.8265 0.3788
vn 0.7625 0.0346 0.6460
vn 0.0000 -0.8223 0.5691
vn 0.5329 0.0934 0.8410
vn 0.0000 0.3372 0.9414
vn 0.6338 -0.7692 -0.0814
vn 0.8509 0.1401 0.5063
vn 0.0000 -0.9592 0.2826
vn 0.8055 -0.3772 0.4570
vn 0.0000 -0.8822 -0.4709
vn -0.8198 0.5629 -0.1049
vn -0.0904 0.5279 -0.8445
vn -0.0559 0.9966 0.0602
vn -0.0321 0.9673 -0.2518
vn -0.0216 -0.9927 0.1189
vn -0.7405 0.6518 0.1640
vn -0.9709 -0.0507 0.2343
vn -0.3367 0.2437 -0.9095
vn -0.2970 -0.1662 -0.9403
vn -0.6764 -0.7348 -0.0501
vn -0.9534 0.0000 -0.3017
vn -0.8239 0.0000 -0.5667
vn -0.0618 0.9745 -0.2158
vn 0.6539 0.6986 -0.2904
vn -0.8494 -0.1572 -0.5037
vn -0.9882 0.0000 0.1529
vn -0.1539 -0.9873 -0.0385
vn -0.1829 -0.9806 -0.0702
vn -0.1106 -0.9937 0.0202
vn -0.0419 -0.9958 0.0818
vn -0.1357 0.9473 -0.2901
vn -0.1135 0.9935 0.0106
vn -0.0765 0.9955 0.0562
vn -0.4500 0.8078 -0.3806
vn 0.7480 -0.6522 -0.1234
vn 0.8837 0.0000 -0.4681
vn -0.9748 0.0000 -0.2232
vn -0.6438 -0.7313 -0.2253
vn -0.6438 0.7313 -0.2253
vn 0.6539 -0.6986 -0.2904
vn -0.8983 0.0000 0.4394
vn -0.0728 0.9875 -0.1399
vn -0.7465 -0.5792 0.3277
vn -0.7465 0.5792 0.3277
vn -0.9495 -0.0000 -0.3139
vn -0.5436 -0.7909 -0.2810
vn -0.5436 0.7909 -0.2810
vn -0.7339 -0.6762 0.0642
vn -0.7278 0.6829 0.0637
vn 0.9680 0.0000 -0.2510
vn -0.1353 -0.9783 -0.1568
vn 0.7480 0.6522 -0.1234
vn 0.0365 -0.9560 -0.2911
vn 0.0737 -0.9467 -0.3137
vn -0.0054 -0.4655 -0.8850
vn -0.3659 0.0194 -0.9304
vn -0.4929 0.5940 0.6358
vn -0.5081 -0.5665 0.6487
vn -0.1052 0.9940 0.0316
vn -0.6370 0.0000 0.7708
vn 0.5116 -0.6379 -0.5756
vn 0.6252 0.0000 -0.7805
vn -0.1002 -0.9945 0.0296
vn 0.4184 0.7598 -0.4977
vn 0.5962 0.6919 -0.4072
vn -0.1914 -0.9777 -0.0860
vn 0.7639 0.0000 -0.6453
vn -0.6529 0.6549 0.3805
vn -0.5720 -0.7226 0.3881
vn 0.6470 -0.6363 -0.4201
vn -0.8209 -0.0000 0.5711
vn -0.0973 0.9900 -0.1020
vn -0.7532 0.0156 -0.6576
vn -0.2168 -0.8257 -0.5208
vn -0.7121 -0.1372 -0.6885
vn -0.4605 0.6134 -0.6417
vn -0.1863 0.8444 -0.5022
vn -0.7259 0.5537 0.4079
vn -0.1208 0.8911 0.4375
vn -0.5820 -0.7640 0.2784
vn -0.5326 -0.8323 0.1540
vn -0.6760 0.2444 0.6952
vn -0.1172 0.5663 0.8158
vn -0.4825 -0.5989 0.6392
vn -0.9219 -0.0588 0.3828
vn -0.7415 0.5321 0.4086
vn -0.1214 0.9366 0.3286
vn -0.4165 -0.8265 0.3788
vn -0.7625 0.0346 0.6460
vn -0.5329 0.0934 0.8410
vn -0.6338 -0.7692 -0.0814
vn -0.8509 0.1401 0.5063
vn -0.8055 -0.3772 0.4570
usemtl Material
s off
f 22//1 16//1 4//1 8//1
f 127//2 52//2 109//2
f 4//3 74//3 136//3 54//3
f 16//4 89//4 74//4 4//4
f 13//5 2//5 72//5 90//5
f 8//6 4//6 54//6 53//6
f 7//7 8//7 53//7 57//7
f 52//8 51//8 109//8
f 49//9 50//9 109//9
f 13//10 19//10 7//10 2//10
f 19//11 22//11 8//11 7//11
f 5//12 6//12 20//12 17//12
f 42//13 45//13 29//13 30//13
f 35//14 33//14 25//14
f 1//15 5//15 17//15 11//15
f 44//16 43//16 31//16 32//16
f 36//17 35//17 23//17
f 1//18 11//18 92//18 71//18
f 11//19 12//19 91//19 92//19
f 12//20 13//20 90//20 91//20
f 3//21 73//21 87//21 14//21
f 14//22 87//22 88//22 15//22
f 15//23 88//23 89//23 16//23
f 6//24 3//24 14//24 20//24
f 41//25 42//25 30//25
f 33//26 34//26 25//26
f 25//27 27//27 26//27
f 25//28 26//28 23//28
f 25//29 24//29 27//29
f 34//30 37//30 25//30
f 39//31 38//31 26//31 27//31
f 37//32 40//32 24//32 25//32
f 38//33 36//33 23//33 26//33
f 40//34 39//34 27//34 24//34
f 30//35 32//35 31//35
f 30//36 31//36 28//36
f 30//37 29//37 32//37
f 43//38 46//38 28//38 31//38
f 45//39 44//39 32//39 29//39
f 47//40 41//40 30//40
f 46//41 48//41 28//41
f 48//42 47//42 30//42
f 28//43 48//43 30//43
f 23//44 35//44 25//44
f 50//45 126//45 109//45
f 51//46 49//46 109//46
f 16//47 22//47 39//47 40//47
f 19//48 13//48 36//48 38//48
f 15//49 16//49 40//49 37//49
f 22//50 19//50 38//50 39//50
f 21//51 15//51 37//51 34//51
f 18//52 21//52 34//52 33//52
f 13//53 12//53 35//53 36//53
f 12//54 18//54 33//54 35//54
f 11//55 17//55 47//55 48//55
f 12//56 11//56 48//56 46//56
f 17//57 20//57 41//57 47//57
f 15//58 21//58 44//58 45//58
f 18//59 12//59 46//59 43//59
f 20//60 14//60 42//60 41//60
f 21//61 18//61 43//61 44//61
f 14//62 15//62 45//62 42//62
f 6//63 5//63 49//63 51//63
f 1//64 71//64 126//64 50//64
f 5//65 1//65 50//65 49//65
f 3//66 6//66 51//66 52//66
f 73//67 3//67 52//67 127//67
f 53//68 54//68 9//68 10//68
f 54//69 136//69 142//69 9//69
f 55//70 57//70 61//70 59//70
f 72//71 2//71 55//71 135//71
f 2//72 7//72 57//72 55//72
f 10//73 9//73 58//73 56//73
f 9//74 142//74 148//74 58//74
f 59//75 61//75 64//75 63//75
f 57//76 53//76 10//76 61//76
f 135//77 55//77 59//77 141//77
f 56//78 58//78 62//78 60//78
f 58//79 148//79 152//79 62//79
f 63//80 64//80 66//80 65//80
f 61//81 10//81 56//81 64//81
f 141//82 59//82 63//82 147//82
f 60//83 62//83 154//83
f 62//84 152//84 154//84
f 65//85 66//85 154//85
f 64//86 56//86 60//86 66//86
f 147//87 63//87 65//87 151//87
f 66//88 60//88 154//88
f 151//89 65//89 154//89
f 98//90 78//90 70//90 86//90
f 127//91 109//91 131//91
f 70//92 133//92 136//92 74//92
f 86//93 70//93 74//93 89//93
f 83//94 90//94 72//94 68//94
f 78//95 132//95 133//95 70//95
f 77//96 138//96 132//96 78//96
f 131//97 109//97 130//97
f 128//98 109//98 129//98
f 83//99 68//99 77//99 95//99
f 95//100 77//100 78//100 98//100
f 75//101 93//101 96//101 76//101
f 119//102 106//102 105//102 122//102
f 112//103 101//103 110//103
f 67//104 81//104 93//104 75//104
f 121//105 108//105 107//105 120//105
f 113//106 99//106 112//106
f 67//107 71//107 92//107 81//107
f 81//108 92//108 91//108 82//108
f 82//109 91//109 90//109 83//109
f 69//110 84//110 87//110 73//110
f 84//111 85//111 88//111 87//111
f 85//112 86//112 89//112 88//112
f 76//113 96//113 84//113 69//113
f 118//114 106//114 119//114
f 110//115 101//115 111//115
f 101//116 102//116 103//116
f 101//117 99//117 102//117
f 101//118 103//118 100//118
f 111//119 101//119 114//119
f 116//120 103//120 102//120 115//120
f 114//121 101//121 100//121 117//121
f 115//122 102//122 99//122 113//122
f 117//123 100//123 103//123 116//123
f 106//124 107//124 108//124
f 106//125 104//125 107//125
f 106//126 108//126 105//126
f 120//127 107//127 104//127 123//127
f 122//128 105//128 108//128 121//128
f 124//129 106//129 118//129
f 123//130 104//130 125//130
f 125//131 106//131 124//131
f 104//132 106//132 125//132
f 99//133 101//133 112//133
f 129//134 109//134 126//134
f 130//135 109//135 128//135
f 86//136 117//136 116//136 98//136
f 95//137 115//137 113//137 83//137
f 85//138 114//138 117//138 86//138
f 98//139 116//139 115//139 95//139
f 97//140 111//140 114//140 85//140
f 94//141 110//141 111//141 97//141
f 83//142 113//142 112//142 82//142
f 82//143 112//143 110//143 94//143
f 81//144 125//144 124//144 93//144
f 82//145 123//145 125//145 81//145
f 93//146 124//146 118//146 96//146
f 85//147 122//147 121//147 97//147
f 94//148 120//148 123//148 82//148
f 96//149 118//149 119//149 84//149
f 97//150 121//150 120//150 94//150
f 84//151 119//151 122//151 85//151
f 76//152 130//152 128//152 75//152
f 67//153 129//153 126//153 71//153
f 75//154 128//154 129//154 67//154
f 69//155 131//155 130//155 76//155
f 73//156 127//156 131//156 69//156
f 132//157 80//157 79//157 133//157
f 133//158 79//158 142//158 136//158
f 134//159 140//159 144//159 138//159
f 72//71 135//71 134//71 68//71
f 68//160 134//160 138//160 77//160
f 80//161 137//161 139//161 79//161
f 79//162 139//162 148//162 142//162
f 140//163 146//163 149//163 144//163
f 138//164 144//164 80//164 132//164
f 135//77 141//77 140//77 134//77
f 137//165 143//165 145//165 139//165
f 139//166 145//166 152//166 148//166
f 146//167 150//167 153//167 149//167
f 144//168 149//168 137//168 80//168
f 141//82 147//82 146//82 140//82
f 143//169 154//169 145//169
f 145//84 154//84 152//84
f 150//170 154//170 153//170
f 149//171 153//171 143//171 137//171
f 147//87 151//87 150//87 146//87
f 153//172 154//172 143//172
f 151//89 154//89 150//89
